<svg width="744" height="216" viewBox="0 0 744 216" fill="none" xmlns="http://www.w3.org/2000/svg">
<path fill-rule="evenodd" clip-rule="evenodd" d="M88.017 5.515C83.351 8.476 79.403 11.29 79.244 11.769C79.084 12.248 84.283 29.096 90.798 49.209L102.642 85.778L99.776 93.139C95.64 103.76 91.363 120.957 89.987 132.5C88.017 149.035 90.446 165.261 96.419 175.451C99.686 181.027 100.589 180.92 98.57 175.197C90.244 151.599 98.995 121.809 122.162 94.891C125.448 91.073 127.994 87.371 127.818 86.664C126.772 82.44 97.468 0.0119975 97.032 0.0649975C96.739 0.100997 92.683 2.553 88.017 5.515ZM44.5 18.086C40.1 23.04 36.364 27.478 36.199 27.95C36.033 28.422 42.687 42.381 50.985 58.97L66.073 89.133L63.323 99.816C60.926 109.13 60.572 112.423 60.559 125.5C60.543 142.133 62.059 151.335 67.231 166C71.291 177.514 82.353 198.98 83.589 197.744C83.794 197.539 82.653 194.25 81.054 190.436C75.343 176.812 73.786 168.887 73.257 150.752C72.96 140.547 73.227 130.78 73.941 125.752C75.295 116.214 79.927 97.745 82.767 90.557L84.72 85.614L70.758 51.057C63.079 32.051 56.118 14.813 55.289 12.75C54.461 10.688 53.494 9.018 53.141 9.04C52.789 9.062 48.9 13.133 44.5 18.086ZM6.642 22.675C5.439 26.733 2.036 52.383 0.913997 65.852C-0.520003 83.073 0.220997 111.66 2.441 124.752C4.549 137.188 9.155 151.209 13.53 158.508C16.848 164.042 24.93 173.403 25.714 172.619C25.901 172.433 24.51 169.986 22.623 167.183C13.291 153.316 9.013 126.465 11.033 94.45C11.593 85.575 12.391 76.33 12.806 73.906L13.562 69.5L19.906 81.5L26.249 93.5L26.063 111.5C25.863 130.899 26.903 142.334 30.155 156.5C36.765 185.298 52.588 206.017 73.869 213.742C77.389 215.019 80.45 215.883 80.672 215.661C80.894 215.439 78.853 213.831 76.136 212.088C64.588 204.677 53.681 189.036 48.182 172C43.743 158.251 42.731 148.975 43.324 127.5C43.628 116.5 44.511 104.143 45.286 100.04L46.695 92.581L27.338 57.114C16.692 37.608 7.801 21.468 7.582 21.248C7.362 21.029 6.939 21.671 6.642 22.675ZM617 46.464V60.928L607.25 61.214L597.5 61.5L597.215 71.75L596.93 82H606.965H617V118.316C617 140.274 617.431 156.966 618.091 160.535C621.077 176.687 629.653 183.996 646.558 184.794C651.539 185.029 658.177 184.69 661.308 184.04L667 182.858V171.944V161.031L661.149 161.642C653.899 162.4 648.794 160.852 646.905 157.324C645.773 155.21 645.5 147.691 645.5 118.6V82.5L656.285 82.216L667.069 81.932L666.785 71.716L666.5 61.5L655.75 61.216L645 60.932V46.466V32H631H617V46.464ZM693 46.464V60.928L683.25 61.214L673.5 61.5L673.215 71.75L672.93 82H682.965H693V118.316C693 140.274 693.431 156.966 694.091 160.535C697.077 176.687 705.653 183.996 722.558 184.794C727.539 185.029 734.177 184.69 737.308 184.04L743 182.858V172.131V161.404L735.028 161.452C727.62 161.497 726.86 161.304 724.278 158.728L721.5 155.956V119.228V82.5L732.285 82.216L743.069 81.932L742.785 71.716L742.5 61.5L731.75 61.216L721 60.932V46.466V32H707H693V46.464ZM219.389 60.488C211.873 62.123 206.139 64.976 200.955 69.66L197 73.233V70.241C197 68.596 196.719 65.844 196.375 64.125L195.75 61H182.875H170V122V183H184H198V138.68V94.36L201.477 90.298C209.671 80.725 227.7 79.461 236.103 87.87C241.659 93.431 242 96.591 242 142.549V183H255.969H269.939L270.219 139.597L270.5 96.194L273.642 91.847C278.239 85.486 284.632 82.49 293.507 82.539C302.63 82.589 307.552 84.993 311 91.084L313.5 95.5L313.799 139.25L314.098 183H328.049H342L341.98 141.25C341.969 118.287 341.507 96.35 340.953 92.5C339.79 84.423 335.708 75.015 331.079 69.743C321.6 58.947 297.853 55.885 281.537 63.354C278.457 64.764 273.252 68.48 269.969 71.611C266.686 74.742 264 76.849 264 76.293C264 74.156 255.531 65.796 251.083 63.542C242.408 59.146 230.731 58.021 219.389 60.488ZM403.791 60.523C389.066 63.454 376.399 72.28 371.08 83.315C369.441 86.717 367.964 91.075 367.8 93L367.5 96.5H381.436H395.373L396.268 93C398.185 85.502 405.543 81.044 416 81.044C429.763 81.044 437 88.436 437 102.495V107.691L421.25 108.299C391.266 109.456 375.645 116.534 368.385 132.253C365.814 137.821 365.5 139.587 365.5 148.5C365.5 157.976 365.678 158.828 368.899 164.768C373.098 172.511 378.267 177.283 386.877 181.362C393.202 184.359 394.062 184.5 406 184.5C419.886 184.5 423.465 183.445 433.12 176.509L437.968 173.026L438.553 175.763C440.164 183.299 439.491 183 454.812 183C462.432 183 468.929 182.737 469.251 182.416C469.572 182.095 468.889 179.282 467.733 176.166C465.774 170.885 465.587 167.784 464.989 130.5C464.338 89.905 464.168 88.17 460.055 80.108C451.843 64.012 427.986 55.707 403.791 60.523ZM526 60.067C522.975 60.601 517.266 62.568 513.314 64.439C499.504 70.976 492.18 80.752 491.239 93.905C489.806 113.929 502.765 125.156 536.297 132.942C547.078 135.446 554.051 138.361 557.152 141.661C559.028 143.659 559.5 145.266 559.5 149.657C559.5 154.706 559.202 155.427 555.844 158.504C550.048 163.816 539.806 165.491 529.299 162.845C522.94 161.244 516.519 154.97 514.849 148.726L513.585 144H500.153H486.721L487.342 149.241C489.216 165.063 503.49 179.074 522.24 183.494C535.96 186.729 556.904 184.661 568.061 178.969C574.472 175.698 581.661 168.403 584.659 162.126C586.869 157.498 587.35 155.082 587.374 148.5C587.443 128.946 576.579 119.453 545.047 111.512C528.937 107.455 524.522 105.839 521.316 102.827C515.147 97.032 519.065 85.647 528.5 81.952C530.15 81.306 534.426 80.761 538.002 80.742C548.761 80.682 555.816 85.546 558.268 94.712L559.415 99H573.336H587.258L586.573 93.75C584.588 78.523 572.603 65.977 555.632 61.361C548.925 59.537 532.96 58.84 526 60.067ZM436.782 137.711L437.065 148.923L433.443 152.931C422.318 165.246 400.986 165.733 394.904 153.812C393.286 150.639 392.885 148.403 393.217 144.398C394.27 131.698 405.321 125.965 428 126.354L436.5 126.5L436.782 137.711Z" fill="#1D3345"/>
</svg>
